<svg width="16" height="17" viewBox="0 0 16 17" fill="none" xmlns="http://www.w3.org/2000/svg">
<path d="M0.75 3.5H15.25C15.4489 3.5 15.6397 3.57902 15.7803 3.71967C15.921 3.86032 16 4.05109 16 4.25C16 4.44891 15.921 4.63968 15.7803 4.78033C15.6397 4.92098 15.4489 5 15.25 5H0.75C0.551088 5 0.360322 4.92098 0.21967 4.78033C0.0790176 4.63968 0 4.44891 0 4.25C0 4.05109 0.0790176 3.86032 0.21967 3.71967C0.360322 3.57902 0.551088 3.5 0.75 3.5ZM3 8.25C3 8.05109 3.07902 7.86032 3.21967 7.71967C3.36032 7.57902 3.55109 7.5 3.75 7.5H12.25C12.4489 7.5 12.6397 7.57902 12.7803 7.71967C12.921 7.86032 13 8.05109 13 8.25C13 8.44891 12.921 8.63968 12.7803 8.78033C12.6397 8.92098 12.4489 9 12.25 9H3.75C3.55109 9 3.36032 8.92098 3.21967 8.78033C3.07902 8.63968 3 8.44891 3 8.25ZM6 12.25C6 12.0511 6.07902 11.8603 6.21967 11.7197C6.36032 11.579 6.55109 11.5 6.75 11.5H9.25C9.44891 11.5 9.63968 11.579 9.78033 11.7197C9.92098 11.8603 10 12.0511 10 12.25C10 12.4489 9.92098 12.6397 9.78033 12.7803C9.63968 12.921 9.44891 13 9.25 13H6.75C6.55109 13 6.36032 12.921 6.21967 12.7803C6.07902 12.6397 6 12.4489 6 12.25Z" fill="white"/>
</svg>
