<svg width="16" height="17" viewBox="0 0 16 17" fill="none" xmlns="http://www.w3.org/2000/svg">
<g clip-path="url(#clip0_11902_235282)">
<path d="M7.25434 2.74314C8.21707 2.74226 9.15842 3.02694 9.95933 3.56116C10.7602 4.09538 11.3847 4.85515 11.7537 5.74433C12.1228 6.63352 12.2198 7.61219 12.0325 8.55652C11.8452 9.50085 11.3821 10.3684 10.7016 11.0495C10.0212 11.7305 9.15402 12.1945 8.20986 12.3826C7.2657 12.5708 6.28695 12.4747 5.39742 12.1064C4.5079 11.7382 3.74756 11.1145 3.21261 10.314C2.67766 9.51363 2.39212 8.57253 2.39212 7.60981C2.39796 6.32166 2.91196 5.08786 3.82241 4.17657C4.73287 3.26528 5.9662 2.75016 7.25434 2.74314ZM7.25434 1.83203C6.11161 1.83203 4.99453 2.17089 4.04438 2.80576C3.09423 3.44063 2.35368 4.343 1.91637 5.39875C1.47907 6.4545 1.36465 7.61622 1.58758 8.737C1.81052 9.85778 2.3608 10.8873 3.16884 11.6953C3.97687 12.5034 5.00638 13.0536 6.12715 13.2766C7.24793 13.4995 8.40965 13.3851 9.4654 12.9478C10.5212 12.5105 11.4235 11.7699 12.0584 10.8198C12.6933 9.86962 13.0321 8.75255 13.0321 7.60981C13.0321 6.07745 12.4234 4.60785 11.3398 3.5243C10.2563 2.44076 8.78671 1.83203 7.25434 1.83203Z" fill="#2FA06A"/>
<path d="M15.5551 15.2939L12.2795 11.9961L11.6484 12.6228L14.924 15.9205C14.9651 15.962 15.014 15.9949 15.0679 16.0174C15.1218 16.04 15.1796 16.0517 15.238 16.0519C15.2964 16.0521 15.3542 16.0408 15.4083 16.0186C15.4623 15.9965 15.5114 15.9639 15.5529 15.9228C15.5943 15.8816 15.6273 15.8327 15.6498 15.7788C15.6723 15.725 15.684 15.6672 15.6842 15.6088C15.6844 15.5504 15.6732 15.4925 15.651 15.4385C15.6288 15.3844 15.5963 15.3353 15.5551 15.2939Z" fill="#2FA06A"/>
</g>
<defs>
<clipPath id="clip0_11902_235282">
<rect width="16" height="16" fill="white" transform="translate(0 0.5)"/>
</clipPath>
</defs>
</svg>
